<svg id="_Слой_1" xmlns="http://www.w3.org/2000/svg" viewBox="0 0 150 150"><defs><style>.cls-2{fill:none;stroke-miterlimit:10;stroke-width:3px;stroke:#1d1d1b}.cls-3{fill:#f9ac00}.cls-4{fill:#fff}.cls-8{fill:#1d1d1b}</style></defs><rect x="26.5" y="123.5" width="97" height="14" rx="2" ry="2" fill="#89450c"/><path d="M39.5 99.5h71c1.1 0 2 .9 2 2v22h-75v-22c0-1.1.9-2 2-2z" tabindex="0" fill="#c18148"/><path d="M100.7 99.15H49.3v-15.7c0-1.99 1.61-3.6 3.6-3.6h11.2v-33.4h-9.2c-1.99 0-3.6-1.61-3.6-3.6v-12.1c0-1.99 1.61-3.6 3.6-3.6h29c1.99 0 3.6 1.61 3.6 3.6v49.1h9.6c1.99 0 3.6 1.61 3.6 3.6v15.7z" fill="#ffce00"/><path d="M56 33h18M54.5 85.5h6m-18 20h24" stroke="#fff" stroke-linecap="round" fill="none" stroke-miterlimit="10" stroke-width="3"/><path class="cls-4" d="M24.5 77.5c-1.93 0-3.5-1.57-3.5-3.5v-1h-1c-1.93 0-3.5-1.57-3.5-3.5S18.07 66 20 66h1v-1c0-1.93 1.57-3.5 3.5-3.5S28 63.07 28 65v1h1c1.93 0 3.5 1.57 3.5 3.5S30.93 73 29 73h-1v1c0 1.93-1.57 3.5-3.5 3.5z"/><path class="cls-8" d="M29 68h-3v-3c0-.83-.67-1.5-1.5-1.5S23 64.17 23 65v3h-3c-.83 0-1.5.67-1.5 1.5S19.17 71 20 71h3v3c0 .83.67 1.5 1.5 1.5S26 74.83 26 74v-3h3c.83 0 1.5-.67 1.5-1.5S29.83 68 29 68z"/><path class="cls-4" d="M121.5 34.5c-1.93 0-3.5-1.57-3.5-3.5v-4h-4c-1.93 0-3.5-1.57-3.5-3.5s1.57-3.5 3.5-3.5h4v-4c0-1.93 1.57-3.5 3.5-3.5s3.5 1.57 3.5 3.5v4h4c1.93 0 3.5 1.57 3.5 3.5S130.93 27 129 27h-4v4c0 1.93-1.57 3.5-3.5 3.5z"/><path class="cls-8" d="M129 22h-6v-6c0-.83-.67-1.5-1.5-1.5s-1.5.67-1.5 1.5v6h-6c-.83 0-1.5.67-1.5 1.5s.67 1.5 1.5 1.5h6v6c0 .83.67 1.5 1.5 1.5s1.5-.67 1.5-1.5v-6h6c.83 0 1.5-.67 1.5-1.5s-.67-1.5-1.5-1.5z"/><path class="cls-4" d="M39.5 24c-1.93 0-3.5-1.57-3.5-3.5V18h-2.5c-1.93 0-3.5-1.57-3.5-3.5s1.57-3.5 3.5-3.5H36V8.5C36 6.57 37.57 5 39.5 5S43 6.57 43 8.5V11h2.5c1.93 0 3.5 1.57 3.5 3.5S47.43 18 45.5 18H43v2.5c0 1.93-1.57 3.5-3.5 3.5z"/><path class="cls-8" d="M45.5 13H41V8.5c0-.83-.67-1.5-1.5-1.5S38 7.67 38 8.5V13h-4.5c-.83 0-1.5.67-1.5 1.5s.67 1.5 1.5 1.5H38v4.5c0 .83.67 1.5 1.5 1.5s1.5-.67 1.5-1.5V16h4.5c.83 0 1.5-.67 1.5-1.5s-.67-1.5-1.5-1.5z"/><path fill="#af6b33" d="M95 100h17v24H95z"/><path class="cls-2" d="M39.5 99.5h71c1.1 0 2 .9 2 2v22h-75v-22c0-1.1.9-2 2-2z"/><path class="cls-3" d="M94 81h6v17h-6z"/><path class="cls-3" d="M86 81h9v5h-9z"/><path class="cls-3" d="M82 27h5v59h-3.16c-1.02 0-1.84-.83-1.84-1.84V27zM50 95h48v3H50z"/><path class="cls-2" d="M100.76 99.21h-51.4v-15.7c0-1.99 1.61-3.6 3.6-3.6h11.2v-33.4h-9.2c-1.99 0-3.6-1.61-3.6-3.6v-12.1c0-1.99 1.61-3.6 3.6-3.6h29c1.99 0 3.6 1.61 3.6 3.6v49.1h9.6c1.99 0 3.6 1.61 3.6 3.6v15.7z"/><path fill="#773707" d="M109 124h13v13h-13z"/><rect class="cls-2" x="26.5" y="123.5" width="97" height="14" rx="2" ry="2"/></svg>