<?xml version="1.0" encoding="utf-8"?><svg xmlns="http://www.w3.org/2000/svg" xmlns:xlink="http://www.w3.org/1999/xlink"><symbol viewBox="0 0 32 32" id="ico-bookmark" xmlns="http://www.w3.org/2000/svg"><path d="M25 5v20.15l-7.66-3.83-1.34-.67-1.34.67L7 25.15V5h18m0-3H7C5.34 2 4 3.34 4 5v25l12-6 12 6V5c0-1.66-1.34-3-3-3Z" fill="currentColor"/></symbol><symbol viewBox="0 0 32 32" id="ico-comment" xmlns="http://www.w3.org/2000/svg"><path d="M2 31.96V7.54c0-1.93 1.57-3.5 3.5-3.5h21c1.93 0 3.5 1.57 3.5 3.5v14.5c0 1.93-1.57 3.5-3.5 3.5H10.98L2 31.96ZM5.5 7.04c-.28 0-.5.22-.5.5v18.59l5.02-3.59H26.5c.28 0 .5-.22.5-.5V7.54c0-.28-.22-.5-.5-.5h-21Z" fill="currentColor"/></symbol><symbol viewBox="0 0 32 32" id="ico-event" xmlns="http://www.w3.org/2000/svg"><path d="M26.22 5H24V3.5c0-.83-.67-1.5-1.5-1.5S21 2.67 21 3.5V5H11V3.5c0-.83-.67-1.5-1.5-1.5S8 2.67 8 3.5V5H5.78C3.69 5 2 6.69 2 8.78v17.44C2 28.31 3.69 30 5.78 30h20.44c2.09 0 3.78-1.69 3.78-3.78V8.78C30 6.69 28.31 5 26.22 5ZM28 26.22c0 .98-.8 1.78-1.78 1.78H5.78C4.8 28 4 27.2 4 26.22V12h24v14.22Z" fill="currentColor"/></symbol><symbol viewBox="0 0 32 32" id="ico-eye" xmlns="http://www.w3.org/2000/svg"><path d="M29.82 15.08C28.07 10.65 22.72 6 16 6S3.92 10.65 2.18 15.08a2.54 2.54 0 0 0 0 1.84C3.93 21.35 9.28 26 16 26s12.08-4.65 13.82-9.08c.23-.59.23-1.24 0-1.84ZM16 23c-5.23 0-9.51-3.57-10.96-7C6.49 12.57 10.77 9 16 9s9.51 3.57 10.96 7c-1.45 3.43-5.73 7-10.96 7Zm4.5-7c0 2.49-2.01 4.5-4.5 4.5s-4.5-2.01-4.5-4.5 2.01-4.5 4.5-4.5 4.5 2.01 4.5 4.5Z" fill="currentColor"/></symbol><symbol viewBox="0 0 18 20" id="ico-fire" xmlns="http://www.w3.org/2000/svg"><path d="M7.352 0 8.6.727a7.894 7.894 0 0 1 3.45 3.982c.22-.48.48-.946.723-1.417l.973.942C15.928 6.351 18 9.523 18 12.604c0 4.13-2.626 6.75-6.828 7.202l-1.377.148.3-1.312c.236-1.026.278-1.697.229-2.167-.06-.591-.349-1.056-.71-1.517-.345-.442-.687-.885-.96-1.374-1.125.862-1.56 1.64-1.7 2.281-.179.821.074 1.66.536 2.556L8.304 20l-1.81-.195c-2.552-.275-5.067-1.929-6.058-4.342C-.6 12.938.132 9.883 3.478 7.07 5.698 5.205 6.873 2.786 7.352 0Zm1.32 3.172c-.755 2.056-2.205 3.93-3.897 5.352-2.885 2.425-3.143 4.655-2.497 6.228.48 1.172 1.518 2.136 2.748 2.683a4.636 4.636 0 0 1-.012-1.966c.323-1.486 1.425-2.879 3.542-4.162l1.067-.647.399 1.158c.348 1.015 1.072 1.733 1.638 2.624.622.98.74 2.105.614 3.227 2.597-.63 3.744-2.539 3.744-5.066 0-2.136-1.328-4.231-2.646-5.869-.543 1.18-1.688 1.596-2.804 2.138V7.317c0-1.316-.552-2.92-1.896-4.144v-.001Z" fill="currentColor"/></symbol><symbol viewBox="0 0 512 512" id="ico-heart-crack-regular" xmlns="http://www.w3.org/2000/svg"><path d="M445.06 98.05C422.63 76.09 392.75 64 360.93 64s-61.7 12.09-84.13 34.05l-20.79 20.35-20.79-20.35C212.78 76.09 182.91 64 151.09 64s-61.7 12.09-84.13 34.05c-22.53 22.05-34.94 51.33-34.94 82.42s12.41 60.37 34.93 82.41c6.65 6.53 59.52 58.26 106.16 103.9 38.48 37.65 74.83 73.22 77.45 75.8l5.5 5.42 5.46-5.46c2.81-2.81 51.36-50.3 98.32-96.23 41.03-40.13 79.79-78.04 85.23-83.41 22.53-22.05 34.94-51.32 34.94-82.42s-12.41-60.37-34.94-82.42Zm-32.62 132.78L256 383.93 99.7 230.96c-13.81-13.52-21.42-31.45-21.42-50.49v-.15c-.36-17.81 7.2-35.83 20.74-49.44 13.71-13.78 32.11-21.69 50.5-21.69.47 0 .93 0 1.4.01h.45l.44-.03c1.32-.12 2.66-.18 3.99-.18 24.21 0 46.69 19.87 66.97 40.3l-17.15 17.15c-8.61 8.61-8.61 22.57 0 31.18l3.78 3.78s.07.08.1.11l57.82 57.82-20.53 48.61c-3.22 7.62 2.38 16.06 10.65 16.06 6.61 0 12.79-3.27 16.5-8.73l40.69-59.82c4.18-5.42 3.68-13.11-1.16-17.95l-11.66-11.66c-.28-.28-.59-.53-.89-.79l-43-43 52.12-52.09C324.55 117.94 340 109 356.29 109c1.31 0 2.63.06 3.93.18l.45.04h.45c.62-.03 1.24-.04 1.86-.04 34.49 0 56.25 23.49 65.11 45.48 8.73 21.66 9.2 53.04-15.65 76.16Z" fill="currentColor"/></symbol><symbol viewBox="0 0 512 512" id="ico-heart-regular" xmlns="http://www.w3.org/2000/svg"><path d="M445.06 98.05a121 121 0 0 0-168.27 0L256 118.4l-20.79-20.35a121 121 0 0 0-168.27 0 114.68 114.68 0 0 0 0 164.83c6.66 6.54 59.52 58.26 106.16 103.9l77.46 75.8 5.5 5.42 5.46-5.46c2.8-2.82 51.36-50.31 98.32-96.24 41-40.13 79.78-78 85.23-83.41a114.68 114.68 0 0 0 0-164.84zM151.8 109.17c1.32-.12 2.66-.18 4-.18 27.87 0 53.44 26.31 76 49.53 6.67 6.87 13 13.35 19 18.77L256 182l5.2-4.66c6.16-5.51 12.57-12.11 19.36-19.09C303 135.15 328.41 109 356.29 109c1.31 0 2.63.06 3.93.18h2.76c34.49 0 56.25 23.5 65.11 45.48 8.73 21.66 9.2 53-15.65 76.17L256 383.93 99.7 231a70.22 70.22 0 0 1-21.42-50.49v-.15c-.36-17.81 7.2-35.83 20.74-49.44 13.71-13.78 32.11-21.69 50.49-21.69h1.85z" fill="currentColor"/></symbol><symbol viewBox="0 0 20 18" id="ico-home" xmlns="http://www.w3.org/2000/svg"><path d="M9.352.238a1 1 0 0 1 1.296 0l9 7.652a1 1 0 0 1-1.296 1.524L17.12 8.366V17a1 1 0 0 1-1 1H3.88a1 1 0 0 1-1-1V8.366L1.648 9.414A1 1 0 1 1 .352 7.89l9-7.652ZM4.88 6.666V16h10.24V6.666L10 2.313 4.88 6.666Z" fill="currentColor"/></symbol><symbol viewBox="0 0 32 32" id="ico-karma" xmlns="http://www.w3.org/2000/svg"><path d="M25.55 16.85c-.1.07-.22.14-.35.18l-7.44 2.73-2.73 7.44c-.19.53-.61.8-1.03.8s-.84-.27-1.03-.8l-2.73-7.44-7.44-2.73c-1.06-.39-1.06-1.68 0-2.07l7.44-2.73 2.73-7.44c.32-1.03 1.75-1.03 2.07 0l2.73 7.44 7.44 2.73c.13.05.25.11.35.18.6.44.6 1.26 0 1.7ZM29.7 6.11l-2.79-1.02-1.02-2.79c-.07-.2-.23-.3-.39-.3s-.31.1-.39.3l-1.02 2.79-2.79 1.02c-.4.15-.4.63 0 .78l2.79 1.02 1.02 2.79c.07.2.23.3.39.3s.31-.1.39-.3l1.02-2.79 2.79-1.02c.4-.15.4-.63 0-.78Z" fill="currentColor"/></symbol><symbol viewBox="0 0 512 512" id="ico-like" xmlns="http://www.w3.org/2000/svg"><path d="M111.5 192H48.6A16.56 16.56 0 0 0 32 208.6V464a16.56 16.56 0 0 0 16.6 16.6h62.8A16.56 16.56 0 0 0 128 464V208.6a16.41 16.41 0 0 0-16.5-16.6zm329.5 0H303.2c-33.3 0 7.4-130.5 7.4-130.5C312.4 46.7 312.4 32 294 32h-16.6c-12.9 0-22.2 9.2-25.9 18.5 0 0-80.4 131.7-88.9 151.3a18.66 18.66 0 0 0-2.6 9.4v250.3a18.52 18.52 0 0 0 18.5 18.5H379c48-1.8 79.4-29.4 85-73.8l15.79-171c1.9-22.3-9.2-43.2-38.8-43.2z" fill="currentColor"/></symbol><symbol viewBox="0 0 32 32" id="ico-link" xmlns="http://www.w3.org/2000/svg"><path d="m11.4 18.47 7.07-7.07c.59-.59 1.54-.59 2.12 0s.59 1.54 0 2.12l-7.07 7.07c-.29.29-.68.44-1.06.44s-.77-.15-1.06-.44a1.49 1.49 0 0 1 0-2.12Zm4.6 2.48-3.15 3.15c-1.19 1.19-3.26 1.04-4.63-.32-1.36-1.37-1.51-3.44-.32-4.63L11.05 16c.59-.59.59-1.54 0-2.12s-1.54-.59-2.12 0l-3.15 3.15c-2.36 2.36-2.21 6.34.32 8.87 1.33 1.33 3.05 2 4.73 2 1.53 0 3.02-.56 4.14-1.68l3.15-3.15c.59-.59.59-1.54 0-2.12s-1.54-.59-2.12 0ZM25.9 6.1c-2.54-2.53-6.51-2.68-8.87-.32l-3.15 3.15c-.59.59-.59 1.54 0 2.12s1.54.59 2.12 0l3.15-3.15c1.19-1.19 3.26-1.04 4.63.32 1.36 1.37 1.51 3.44.32 4.63L20.95 16a1.49 1.49 0 0 0 0 2.12c.29.29.68.44 1.06.44s.77-.15 1.06-.44l3.15-3.15c2.36-2.36 2.21-6.34-.32-8.87Z" fill="currentColor"/></symbol><symbol viewBox="0 0 16 20" id="ico-lock" xmlns="http://www.w3.org/2000/svg"><path d="M16 11c0-1.103-.897-2-2-2h-1V5c0-2.757-2.243-5-5-5S3 2.243 3 5v4H2c-1.103 0-2 .897-2 2v7c0 1.103.897 2 2 2h12c1.103 0 2-.897 2-2v-7ZM5 5c0-1.654 1.346-3 3-3s3 1.346 3 3v4H5V5Z" fill="currentColor"/></symbol><symbol viewBox="0 0 512 512" id="ico-minus-circle-regular" xmlns="http://www.w3.org/2000/svg"><path d="M491.86 156.34A256.65 256.65 0 1 0 512 256a255.12 255.12 0 0 0-20.14-99.66zM464 256c0 114.88-93.12 208-208 208S48 370.88 48 256 141.12 48 256 48s208 93.12 208 208zm-72-24a24 24 0 0 1 0 48H120a24 24 0 0 1 0-48z" fill="currentColor"/></symbol><symbol viewBox="0 0 512 512" id="ico-plus-circle-regular" xmlns="http://www.w3.org/2000/svg"><path d="M491.86 156.34A256.65 256.65 0 1 0 512 256a255.12 255.12 0 0 0-20.14-99.66zM464 256c0 114.88-93.12 208-208 208S48 370.88 48 256 141.12 48 256 48s208 93.12 208 208zm-72-24a24 24 0 0 1 0 48H280v112a24 24 0 0 1-48 0V280H120a24 24 0 0 1 0-48h112V120a24 24 0 0 1 48 0v112z" fill="currentColor"/></symbol><symbol viewBox="0 0 20 20" id="ico-public" xmlns="http://www.w3.org/2000/svg"><path d="M2.3 8c-.3 1.3-.3 2.7 0 4h2.8c-.1-1.3-.1-2.7 0-4H2.3zm.8-2h2.3c.3-1.2.7-2.3 1.1-3.2-1.4.7-2.6 1.8-3.4 3.2zm14.6 2h-2.8c.1 1.3.1 2.7 0 4h2.8c.4-1.3.4-2.7 0-4zm-.8-2c-.8-1.4-2-2.5-3.5-3.2.5.9.9 2 1.1 3.2h2.4zM7.1 8c-.1 1.3-.1 2.7 0 4h5.8c.1-1.3.1-2.7 0-4H7.1zm.4-2h5.1c-.2-.8-.4-1.5-.8-2.2C11.1 2.6 10.4 2 10 2c-.4 0-1.1.6-1.7 1.8-.4.7-.6 1.4-.8 2.2zm-4.4 8c.8 1.4 2 2.5 3.5 3.2-.5-.9-.9-2-1.1-3.2H3.1zm13.8 0h-2.3c-.3 1.2-.6 2.3-1.1 3.2 1.4-.7 2.6-1.8 3.4-3.2zm-9.4 0c.2.8.5 1.5.8 2.2.6 1.2 1.3 1.8 1.7 1.8.4 0 1.1-.6 1.7-1.8.3-.6.6-1.4.8-2.2h-5zm2.5 6C4.5 20 0 15.5 0 10S4.5 0 10 0s10 4.5 10 10-4.5 10-10 10z" fill="currentColor"/></symbol><symbol viewBox="0 0 32 32" id="ico-question" xmlns="http://www.w3.org/2000/svg"><path d="M16 2C8.27 2 2 8.27 2 16s6.27 14 14 14 14-6.27 14-14S23.73 2 16 2Zm0 26C9.38 28 4 22.62 4 16S9.38 4 16 4s12 5.38 12 12-5.38 12-12 12Zm-1.53-7.11h3.2V24h-3.2v-3.11Zm6.97-8.3c0 .93-.23 1.72-.7 2.35-.27.39-.8.88-1.57 1.48l-.76.59c-.42.32-.69.7-.83 1.13-.09.27-.13.7-.14 1.27h-2.9c.04-1.21.16-2.05.34-2.51.19-.46.67-.99 1.44-1.6l.78-.61c.26-.19.47-.41.62-.63.29-.39.43-.83.43-1.3 0-.54-.16-1.04-.48-1.49-.32-.45-.9-.67-1.75-.67s-1.42.28-1.77.83c-.35.55-.52 1.13-.52 1.72h-3.11c.09-2.04.8-3.49 2.14-4.34.85-.54 1.88-.82 3.12-.82 1.62 0 2.96.39 4.03 1.16 1.07.77 1.61 1.92 1.61 3.44Z" fill="currentColor"/></symbol><symbol viewBox="0 0 512 512" id="ico-thumb-down-regular" xmlns="http://www.w3.org/2000/svg"><path d="M103.4 32A24.63 24.63 0 0 1 128 56.6v238.71A24.41 24.41 0 0 1 103.5 320H56.6A24.63 24.63 0 0 1 32 295.4V56.6A24.63 24.63 0 0 1 56.6 32zm269.75 0h-.85c51.86 1.94 86.49 32.18 92.63 80.89v.16l14.82 155.66c1.27 15-2.68 28.26-11.13 37.46C460.34 315.22 448 320 433 320h-88.8a2 2 0 0 0-1.93 1c-1.94 2.62-7.42 15.07 3 65.09 5.87 28.06 13.85 53.8 13.93 54.06l.07.21.05.21c3.49 13.81 2.6 23.83-2.71 30.65-4.5 5.83-11.78 8.78-21.61 8.78h-46.6c-17.31 0-28.51-12.09-33-22.75-6.82-10.74-82.65-130.2-91.93-150.87a26.6 26.6 0 0 1-3.44-13V58.5A26.53 26.53 0 0 1 186.5 32zM208 80v208.28c3.2 6 18.49 32.32 85.4 141.93l1.09 1.79h13.18l-9.3-36.07v-.18c-6.17-29.61-8.33-52.45-6.61-69.8 1.75-17.65 7.29-27.12 11.92-33.4A49.92 49.92 0 0 1 344.2 272h87.67l-14.64-153.68C414 94.12 398.47 81.23 371.18 80z" fill="currentColor"/></symbol><symbol viewBox="0 0 512 512" id="ico-thumb-up-regular" xmlns="http://www.w3.org/2000/svg"><path d="M56.6 480A24.63 24.63 0 0 1 32 455.4V216.6A24.63 24.63 0 0 1 56.6 192h46.9a24.41 24.41 0 0 1 24.5 24.69V455.4a24.63 24.63 0 0 1-24.6 24.6zm129.9 0a26.53 26.53 0 0 1-26.5-26.5V218.6a26.6 26.6 0 0 1 3.44-13c9.28-20.6 85.11-140.11 91.93-150.85C259.89 44.09 271.09 32 288.4 32H335c9.83 0 17.11 3 21.64 8.76 5.31 6.82 6.2 16.84 2.71 30.65l-.05.21-.07.21c-.08.26-8.06 26-13.93 54.06-10.45 50-5 62.47-3 65.09a2 2 0 0 0 1.93 1H433c15 0 27.34 4.78 35.64 13.82 8.45 9.2 12.4 22.5 11.13 37.46L465 398.94v.16c-6.14 48.71-40.77 78.95-92.63 80.89H186.5zm184.68-48c27.29-1.23 42.79-14.12 46.05-38.32L431.87 240H344.2a49.92 49.92 0 0 1-40.56-20.55c-4.63-6.28-10.17-15.75-11.92-33.4-1.72-17.35.44-40.19 6.61-69.8v-.18L307.67 80h-13.18l-1.09 1.79C226.49 191.4 211.2 217.73 208 223.72V432z" fill="currentColor"/></symbol><symbol viewBox="0 0 20 20" id="ico-time" xmlns="http://www.w3.org/2000/svg"><path d="M10 0C4.5 0 0 4.5 0 10s4.5 10 10 10 10-4.5 10-10S15.5 0 10 0zm0 18c-4.4 0-8-3.6-8-8s3.6-8 8-8 8 3.6 8 8-3.6 8-8 8zm1-13H9v5.4l3.3 3.3 1.4-1.4L11 9.6V5z" fill="currentColor"/></symbol><symbol viewBox="0 0 20 20" id="ico-top" xmlns="http://www.w3.org/2000/svg"><path d="M19 0H1C.4 0 0 .4 0 1c0 2.5.6 4.4 1.5 5.8.7 1.1 1.7 1.8 2.7 2.1.6 2.5 2.4 4.6 4.8 5V18H6v2h8v-2h-3v-4.1c2.4-.4 4.3-2.5 4.8-5 1-.3 2-1 2.7-2.1C19.4 5.4 20 3.5 20 1c0-.6-.4-1-1-1zM3.2 5.7c-.6-.8-1-2-1.2-3.7h2v4.6c-.3-.2-.6-.5-.8-.9zM10 12c-2.1 0-4-2-4-4.7V2h8v5.3c0 2.7-1.9 4.7-4 4.7zm6.8-6.3c-.3.4-.6.7-.8.9V2h2c-.2 1.7-.6 2.9-1.2 3.7z" fill="currentColor"/></symbol><symbol viewBox="0 0 16 20" id="ico-unlock" xmlns="http://www.w3.org/2000/svg"><path d="M14 9c1.1 0 2 .9 2 2v7c0 1.1-.9 2-2 2H2c-1.1 0-2-.9-2-2v-7c0-1.1.9-2 2-2h1V5c0-2.8 2.2-5 5-5s5 2.2 5 5v1h-2V5c0-1.7-1.3-3-3-3S5 3.3 5 5v4h9z" fill="currentColor"/></symbol><symbol viewBox="0 0 18 19" id="ico-user" xmlns="http://www.w3.org/2000/svg"><path d="M9 0a5 5 0 1 0 0 10A5 5 0 0 0 9 0Zm0 8a3 3 0 1 1 0-6 3 3 0 0 1 0 6Zm9 11v-1a7 7 0 0 0-7-7H7a7 7 0 0 0-7 7v1h2v-1a5 5 0 0 1 5-5h4a5 5 0 0 1 5 5v1h2Z" fill="currentColor"/></symbol><symbol viewBox="0 0 32 32" id="ico-video" xmlns="http://www.w3.org/2000/svg"><path d="M21.83 15.18a1 1 0 0 1 0 1.64l-7.26 5.08a.999.999 0 0 1-1.57-.82V10.92c0-.81.91-1.28 1.57-.82l7.26 5.08ZM30 16c0 7.73-6.27 14-14 14S2 23.73 2 16 8.27 2 16 2s14 6.27 14 14Zm-2 0c0-6.62-5.38-12-12-12S4 9.38 4 16s5.38 12 12 12 12-5.38 12-12Z" fill="currentColor"/></symbol><symbol viewBox="0 0 32 32" id="ico-vote-minus" xmlns="http://www.w3.org/2000/svg"><path d="M2.56 11c0-.38.15-.77.44-1.06a1.49 1.49 0 0 1 2.12 0L16 20.82 26.88 9.94c.59-.59 1.54-.59 2.12 0s.59 1.54 0 2.12L17.66 23.4c-.44.44-1.04.69-1.66.69s-1.22-.25-1.66-.69L3 12.06c-.29-.29-.44-.68-.44-1.06Zm12.98 10.28Z" fill="currentColor"/></symbol><symbol viewBox="0 0 32 32" id="ico-vote-plus" xmlns="http://www.w3.org/2000/svg"><path d="M29.44 21c0 .38-.15.77-.44 1.06-.59.59-1.54.59-2.12 0L16 11.18 5.12 22.06c-.59.59-1.54.59-2.12 0s-.59-1.54 0-2.12L14.34 8.6c.44-.44 1.04-.69 1.66-.69s1.22.25 1.66.69L29 19.94c.29.29.44.68.44 1.06ZM16.46 10.72Z" fill="currentColor"/></symbol><symbol xml:space="preserve" viewBox="0 0 36 20" id="subscribe-badge" xmlns="http://www.w3.org/2000/svg"><path d="M11.2 8.1c.1.2.2.4.2.7 0 .3-.1.5-.2.7-.1.2-.3.4-.5.5h-2V7.5h1.2c.3 0 .6.1.8.2.2 0 .4.2.5.4zm15.8.5c-.1-.4-.4-.7-.7-.9-.3-.2-.7-.3-1.1-.3-.4 0-.8.1-1.1.3-.3.2-.5.5-.7.9-.2.4-.3.8-.3 1.4 0 .5.1 1 .3 1.4.2.4.4.7.7.9.3.2.7.3 1.1.3.4 0 .8-.1 1.1-.3.3-.2.6-.5.7-.9.2-.4.3-.8.3-1.4 0-.5-.1-1-.3-1.4zm-9.1-1c-.2-.1-.5-.1-.8-.1h-1.2v2.4h1.2c.3 0 .6 0 .8-.1.2-.1.4-.2.5-.4.1-.2.2-.4.2-.6 0-.3-.1-.5-.2-.7-.1-.3-.3-.4-.5-.5zM36 6v8c0 3.3-2.7 6-6 6H6c-3.3 0-6-2.7-6-6V6c0-3.3 2.7-6 6-6h24c3.3 0 6 2.7 6 6zM13.1 8.7c0-.5-.1-1-.3-1.4-.2-.4-.6-.7-1-.9-.4-.2-1-.3-1.6-.3H7v7.8h1.7v-2.5h1.4c.6 0 1.2-.1 1.6-.3.4-.2.8-.5 1-.9.3-.5.4-.9.4-1.5zm7.5 5.2-1.7-3c.4-.2.8-.5 1.1-.9.2-.4.3-.8.3-1.3s-.1-1-.3-1.3c-.2-.4-.6-.7-1-.9-.4-.2-1-.3-1.6-.3h-3.2V14h1.7v-2.8h1.3l1.5 2.8h1.9zM29 10c0-.8-.2-1.6-.5-2.2-.3-.6-.8-1-1.4-1.4-.5-.2-1.2-.4-1.9-.4s-1.4.2-1.9.5c-.6.3-1 .8-1.4 1.4-.3.6-.5 1.3-.5 2.2 0 .8.2 1.6.5 2.2.3.6.8 1 1.4 1.4.6.3 1.2.5 1.9.5s1.4-.2 1.9-.5c.6-.3 1-.8 1.4-1.4.3-.7.5-1.5.5-2.3z" fill="currentColor"/></symbol></svg>